<svg width="500" height="650" viewBox="0 0 500 650" fill="none" xmlns="http://www.w3.org/2000/svg">
<path d="M500 250C500 388.071 388.071 500 250 500C111.929 500 0 388.071 0 250C0 111.929 111.929 0 250 0C388.071 0 500 111.929 500 250Z" fill="#FFD12C"/>
<path fill-rule="evenodd" clip-rule="evenodd" d="M250.002 99.9995C235.275 99.9995 223.336 111.939 223.336 126.666V182.402C223.336 183.589 221.899 184.184 221.059 183.344L181.649 143.934C171.235 133.52 154.35 133.52 143.936 143.934C133.522 154.348 133.522 171.232 143.936 181.646L183.347 221.057C184.187 221.897 183.592 223.333 182.404 223.333H126.669C111.941 223.333 100.002 235.272 100.002 250C100.002 264.727 111.941 276.666 126.669 276.666H182.404C183.592 276.666 184.187 278.102 183.347 278.942L143.936 318.353C133.522 328.767 133.522 345.652 143.936 356.066C154.35 366.48 171.235 366.48 181.648 356.066L221.059 316.655C221.899 315.815 223.336 316.41 223.336 317.597V472C223.336 472.736 222.739 473.333 222.002 473.333H160.002C145.275 473.333 133.336 485.272 133.336 500C133.336 514.727 145.275 526.666 160.002 526.666H183.064C184.252 526.666 184.847 528.102 184.007 528.942L174.858 538.091C164.444 548.505 164.444 565.389 174.858 575.803C185.272 586.217 202.157 586.217 212.571 575.803L221.059 567.315C221.899 566.475 223.336 567.07 223.336 568.258V606.666C223.336 621.394 235.275 633.333 250.002 633.333C264.73 633.333 276.669 621.394 276.669 606.666V567.598C276.669 566.41 278.105 565.815 278.945 566.655L288.093 575.803C298.507 586.217 315.392 586.217 325.806 575.803C336.22 565.389 336.22 548.505 325.806 538.091L316.657 528.942C315.817 528.102 316.412 526.666 317.6 526.666H340.002C354.73 526.666 366.669 514.727 366.669 500C366.669 485.272 354.73 473.333 340.002 473.333H278.002C277.266 473.333 276.669 472.736 276.669 472V317.598C276.669 316.41 278.105 315.815 278.945 316.655L318.356 356.066C328.77 366.48 345.654 366.48 356.068 356.066C366.482 345.652 366.482 328.767 356.068 318.353L316.657 278.942C315.817 278.102 316.412 276.666 317.6 276.666H373.335C388.063 276.666 400.002 264.727 400.002 250C400.002 235.272 388.063 223.333 373.335 223.333H317.6C316.412 223.333 315.817 221.897 316.657 221.057L356.068 181.646C366.482 171.232 366.482 154.347 356.068 143.933C345.654 133.52 328.77 133.52 318.356 143.933L278.945 183.344C278.105 184.184 276.669 183.589 276.669 182.402V126.666C276.669 111.939 264.73 99.9995 250.002 99.9995Z" fill="black"/>
<path fill-rule="evenodd" clip-rule="evenodd" d="M278.945 566.655C278.105 565.815 276.669 566.41 276.669 567.598V606.666C276.669 621.394 264.73 633.333 250.002 633.333C235.275 633.333 223.336 621.394 223.336 606.666V568.257C223.336 567.07 221.9 566.475 221.06 567.315L212.571 575.803C211.783 576.591 210.957 577.32 210.101 577.989C209.004 578.845 207.857 579.603 206.669 580.264C196.523 585.907 183.476 584.42 174.859 575.803C166.053 566.998 164.693 553.567 170.778 543.333C171.5 542.119 172.326 540.95 173.258 539.839C173.761 539.238 174.294 538.655 174.859 538.091L184.007 528.942C184.847 528.102 184.252 526.666 183.064 526.666H160.002C145.275 526.666 133.336 514.727 133.336 499.999C133.336 485.272 145.275 473.333 160.002 473.333H222.002C222.739 473.333 223.336 472.736 223.336 471.999V317.597C223.336 316.41 221.9 315.815 221.06 316.655L181.649 356.065C171.235 366.479 154.35 366.479 143.936 356.065C133.522 345.652 133.522 328.767 143.936 318.353L183.347 278.942C184.187 278.102 183.592 276.666 182.404 276.666H126.669C111.941 276.666 100.002 264.727 100.002 249.999C100.002 235.272 111.941 223.333 126.669 223.333H182.404C183.592 223.333 184.187 221.897 183.347 221.057L143.936 181.646C133.522 171.232 133.522 154.347 143.936 143.933C154.35 133.519 171.235 133.519 181.649 143.933L221.06 183.344C221.9 184.184 223.336 183.589 223.336 182.401V126.666C223.336 111.939 235.275 99.9994 250.002 99.9994C264.73 99.9994 276.669 111.939 276.669 126.666V182.401C276.669 183.589 278.105 184.184 278.945 183.344L318.356 143.933C328.77 133.519 345.654 133.519 356.068 143.933C366.482 154.347 366.482 171.232 356.068 181.646L316.657 221.057C315.818 221.897 316.412 223.333 317.6 223.333H373.336C388.063 223.333 400.002 235.272 400.002 249.999C400.002 264.727 388.063 276.666 373.336 276.666H317.6C316.412 276.666 315.818 278.102 316.657 278.942L356.068 318.353C366.482 328.767 366.482 345.652 356.068 356.066C345.654 366.479 328.77 366.479 318.356 356.066L278.945 316.655C278.105 315.815 276.669 316.41 276.669 317.597V471.999C276.669 472.736 277.266 473.333 278.002 473.333H340.002C354.73 473.333 366.669 485.272 366.669 499.999C366.669 514.727 354.73 526.666 340.002 526.666H317.6C316.412 526.666 315.817 528.102 316.657 528.942L325.806 538.091C326.37 538.655 326.904 539.238 327.407 539.839C328.338 540.95 329.165 542.119 329.887 543.333C335.971 553.567 334.611 566.998 325.806 575.803C317.001 584.608 303.57 585.969 293.336 579.884C292.122 579.162 290.952 578.336 289.841 577.404C289.241 576.901 288.658 576.368 288.094 575.803L278.945 566.655ZM293.336 598.096V606.666C293.336 630.599 273.935 649.999 250.002 649.999C226.07 649.999 206.669 630.599 206.669 606.666V598.308C191.777 602.959 174.87 599.385 163.073 587.588C150.942 575.457 147.507 557.923 152.769 542.732C132.28 539.289 116.669 521.467 116.669 499.999C116.669 476.067 136.07 456.666 160.002 456.666H206.669V354.615L193.434 367.851C176.511 384.773 149.074 384.773 132.151 367.851C115.228 350.928 115.228 323.491 132.151 306.568L145.386 293.333H126.669C102.737 293.333 83.3357 273.932 83.3357 249.999C83.3357 226.067 102.737 206.666 126.669 206.666H145.386L132.151 193.431C115.229 176.508 115.229 149.071 132.151 132.148C149.074 115.226 176.511 115.226 193.434 132.148L206.669 145.384V126.666C206.669 102.734 226.07 83.3328 250.002 83.3328C273.935 83.3328 293.336 102.734 293.336 126.666V145.383L306.571 132.148C323.494 115.226 350.931 115.226 367.853 132.148C384.776 149.071 384.776 176.508 367.853 193.431L354.618 206.666H373.336C397.268 206.666 416.669 226.067 416.669 249.999C416.669 273.932 397.268 293.333 373.336 293.333H354.618L367.854 306.568C384.776 323.491 384.776 350.928 367.854 367.851C350.931 384.773 323.494 384.773 306.571 367.851L293.336 354.615V456.666H340.002C363.935 456.666 383.336 476.067 383.336 499.999C383.336 521.249 368.04 538.927 347.858 542.623C353.174 557.839 349.751 575.428 337.591 587.588C325.62 599.56 308.386 603.063 293.336 598.096Z" fill="#FFD12C"/>
</svg>
